<svg xmlns="http://www.w3.org/2000/svg" viewBox="0 0 1152 1152" width="1152" height="1152">
  <g transform="matrix(1.3333333,0,0,-1.3333333,0,1152)">
    <g transform="translate(312.9867,136.7145)">
      <path fill="#ffffff" d="m 0,0 341.634,-0.725 53.654,59.858 54.038,-59.632 h 101.685 v 87.332 l -63.687,68.682 63.687,68.059 V 309.09 L 0,309.585 Z"/>
    </g>
    <g transform="translate(373.3565,367.7588)">
      <path fill="#ffffff" d="m 0,0 h -60.369 v 52.539 h 62.195 c 17.782,0 28.096,-8.494 28.096,-25.491 0,-17.393 -9.529,-27.048 -29.922,-27.048 M 1.821,91.494 h -62.19 v 49.534 h 63.622 c 16.172,0 26.488,-7.324 26.488,-24.324 0,-17.389 -10.316,-25.21 -27.92,-25.21 m 75.199,-21.144 c 17.004,10.707 26.098,25.6 26.098,50.706 0,50.314 -36.637,70.317 -83.612,70.317 H -102.18 V 0 h 100.297 c 51.494,0 87.738,15.289 87.738,64.038 0,24.717 -11.49,40.789 -9.035,6.312"/>
    </g>
    <g transform="translate(604.1318,191.373)">
      <path fill="#ffffff" d="M 0,0 47.367,51.889 94.729,0 Z"/>
    </g>
    <g transform="translate(744.2095,367.7588)">
      <path fill="#ffffff" d="m 0,0 -92.71,99.688 92.71,93.685 v -73.569 l -55.859,-59.463 55.859,-60.341"/>
    </g>
    <g transform="translate(504.0259,367.7588)">
      <path fill="#ffffff" d="m 0,0 v 191.373 h 44.35 l 47.756,-105.184 46.98,105.184 h 44.743 V 0 h -39.02 v 141.025 L 99.067,0 H 66.584 L 11.486,141.025 V 0 Z"/>
    </g>
    <g transform="translate(155.0479,560.1313)">
      <path fill="#ffffff" d="m 0,0 26.878,-63.645 h -53.756 z m 38.24,31.24 h 46.585 l -73.472,-161.178 h -44.354 l -73.08,160.785 h 47.363 l 13.268,-32.416 h 70.427 z"/>
    </g>
    <g transform="translate(155.0479,467.4619)">
      <path fill="#ffffff" d="m 0,0 -92.708,-99.687 92.708,-93.686 v 73.176 l -55.859,59.856 55.859,60.341"/>
    </g>
  </g>
</svg>
