<svg xmlns="http://www.w3.org/2000/svg" viewBox="0 0 528 216" width="528" height="216">
  <g fill="#ffffff">
    <!-- AT&T Globe -->
    <path d="M108,0C48.4,0,0,48.4,0,108s48.4,108,108,108s108-48.4,108-108S167.6,0,108,0z M108,198.7
      c-12.4,0-24.3-2.4-35.1-6.8c3.2-4.3,6.8-9.2,10.5-14.6c7.2,2.3,14.9,3.9,23,4.5v17.5C109.5,199.2,108.8,198.7,108,198.7z
      M165.7,166.4c-8.3,10.2-18.7,18.6-30.5,24.7v-16.3c8.1-3.2,15.7-7.4,22.7-12.5C160.3,164.5,162.9,166.1,165.7,166.4z
      M178.5,147.8c-4.2,6.1-9.1,11.6-14.6,16.5c-3-0.8-5.8-2.5-8-5c-4.5-5.1-5.8-12.3-3.6-19.8c7.2-4.3,13.7-9.5,19.4-15.4
      c3.4,2.4,7.2,4.2,11.4,5.2C183.5,136.2,181.5,142.2,178.5,147.8z M185.6,115.5c-2.4,0.3-4.8,0.3-7.2,0
      c-0.5-5.2-1.5-10.3-3-15.2c6.4-2.2,12.2-5.6,17-10c2.8,8,4.4,16.6,4.4,25.5C193,115.8,189.3,115.8,185.6,115.5z
      M167.5,52.6c-6.9,10.5-16.4,19.1-27.4,24.9V59.7c10.1-4.2,19.2-10.2,26.8-17.7C167.2,45.2,167.5,48.9,167.5,52.6z
      M126.3,17.8v19.8c-6.1,0.5-12.1,1.6-17.8,3.4c-2.2-5.8-4-11.1-5.3-15.5C111.2,21.5,118.6,19,126.3,17.8z
      M89.7,31.3c1.7,4.6,3.7,9.8,6,15.5c-9,4.2-17.1,9.8-24.1,16.5c-5.7-6.3-9.4-12.2-11.4-16.8C70.3,40.2,79.6,35,89.7,31.3z
      M44.6,61.9c3.4,5.7,8.1,12,14.2,18.4c-5.6,7.2-10.1,15.2-13.3,23.9c-7.7-1.7-13.8-4.1-18-7C30.4,84.2,36.2,72.1,44.6,61.9z
      M24.7,131.9c5.4,3.6,12.8,6.4,21.6,8.3c0.5,8.6,2.2,16.9,4.9,24.7c-8.9,4.6-15.1,9.3-18.4,13.5
      C25.5,164.5,22.4,148.7,24.7,131.9z"/>
    <!-- AT&T Text -->
    <path d="M289.4,157.8h-22.7l-5.5,18.4h-21.5l27.6-80h21.5l27.6,80h-21.5L289.4,157.8z M271.2,141.8h13.7l-6.8-22.8L271.2,141.8z"/>
    <path d="M358.5,115.2v61h-20v-61h-21.2V96.2h62.4v19H358.5z"/>
    <path d="M400.8,131.3l-5.5-5.3h-5.9v-29.8h20v15.3h9.5l11.9-15.3h22.8l-19.5,23.5l20.2,32.5l5.5,5.3h5.9v18.7h-20v-4.3h-9.5
      l-12.6,18.7h-22.8l20.2-28.7L400.8,131.3z"/>
    <path d="M499.5,115.2v61h-20v-61h-21.2V96.2H521v19H499.5z"/>
  </g>
</svg>
