<svg xmlns="http://www.w3.org/2000/svg" viewBox="0 0 118 32" width="118" height="32">
  <g fill="#ffffff">
    <path d="M18.6,25.4h-5.7l-1.4,4.6H5.4l6.9-20h5.4l6.9,20h-6.1L18.6,25.4z M14.1,21.4h3.4l-1.7-5.7L14.1,21.4z"/>
    <path d="M36.1,14.3v15.3h-5V14.3h-5.3V10h15.6v4.3H36.1z"/>
    <path d="M47.5,17.6l-1.4-1.3h-1.5V8.8h5v3.8h2.4l3-3.8h5.7l-4.9,5.9l5.1,8.1l1.4,1.3h1.5v4.7h-5v-1.1h-2.4l-3.2,4.7h-5.7l5.1-7.2L47.5,17.6z"/>
    <path d="M72.2,14.3v15.3h-5V14.3h-5.3V10h15.6v4.3H72.2z"/>
  </g>
</svg>
